<?xml version="1.0" encoding="UTF-8"?>
<!DOCTYPE svg PUBLIC "-//W3C//DTD SVG 1.1//EN" "http://www.w3.org/Graphics/SVG/1.1/DTD/svg11.dtd">
<!-- Creator: CorelDRAW X8 -->
<svg xmlns="http://www.w3.org/2000/svg" xml:space="preserve" width="396.407mm" height="131.153mm" version="1.1" style="shape-rendering:geometricPrecision; text-rendering:geometricPrecision; image-rendering:optimizeQuality; fill-rule:evenodd; clip-rule:evenodd"
viewBox="0 0 40038 13247"
 xmlns:xlink="http://www.w3.org/1999/xlink">
 <defs>
  <style type="text/css">
   <![CDATA[
    .str0 {stroke:#FFCC29;stroke-width:50.5013}
    .str7 {stroke:#FAA954;stroke-width:50.5013}
    .str6 {stroke:#FAA954;stroke-width:50.5013}
    .str5 {stroke:#A45E4D;stroke-width:50.5013}
    .str2 {stroke:#CB7246;stroke-width:50.5013}
    .str1 {stroke:#00A859;stroke-width:50.5013}
    .str3 {stroke:#CB7246;stroke-width:50.5013;stroke-linejoin:round}
    .str4 {stroke:#D2AE6D;stroke-width:30.3008;stroke-linecap:round;stroke-linejoin:round}
    .fil0 {fill:none}
   ]]>
  </style>
 </defs>
 <g id="Capa_x0020_1">
  <metadata id="CorelCorpID_0Corel-Layer"/>
  <ellipse class="fil0 str0" cx="24390" cy="2368" rx="835" ry="798"/>
  <ellipse class="fil0 str0" cx="24386" cy="2353" rx="1470" ry="1406"/>
  <ellipse class="fil0 str0" cx="24392" cy="2348" rx="1984" ry="1888"/>
  <ellipse class="fil0 str0" cx="24408" cy="2380" rx="2489" ry="2355"/>
  <path class="fil0 str1" d="M9492 7851l0 -1079c-534,28 -612,-809 -592,-1088 17,-228 283,-157 273,-4 -14,209 47,791 300,803 2,0 2,-4 2,-8 0,-233 1,-1391 8,-1488 24,-311 356,-240 353,-9 -8,580 -10,1234 -10,1814 0,48 -10,123 6,154 3,6 -5,1 0,0 257,-29 309,-388 291,-555 -22,-206 331,-321 301,39 -41,493 -167,742 -556,812 -11,2 -16,14 -17,39 -1,72 -5,422 -5,534"/>
  <path class="fil0 str1" d="M25596 8998l0 -952c-616,33 -706,-979 -682,-1316 19,-276 326,-189 314,-4 -16,252 55,955 347,970 2,0 2,-5 2,-10 0,-281 1,-1681 9,-1798 28,-376 411,-290 407,-11 -8,701 -11,1492 -11,2193 0,58 -11,148 7,186 3,7 -6,1 0,0 296,-35 356,-469 336,-670 -26,-250 382,-389 347,46 -47,596 -192,898 -641,981 -13,3 -19,18 -20,48 -1,87 -5,314 -5,450"/>
  <path class="fil0 str1" d="M28009 9167l0 -1421c-455,17 -766,-668 -752,-1357 8,-426 342,-279 328,7 -17,391 63,991 400,1014 2,0 2,-8 2,-16 0,-434 1,-3088 11,-3269 31,-581 473,-449 469,-17 -6,592 -9,1225 -11,1855 0,3 0,9 0,9 265,-98 246,-503 304,-584 105,-145 275,-27 281,47 37,396 -162,773 -586,897 -63,19 0,7 0,10 -1,395 -2,785 -2,1158 0,91 -12,230 9,289 3,11 -7,2 0,0 501,-128 666,-983 695,-1294 31,-339 350,-257 323,-5 -47,430 -217,1404 -1021,1646 -14,4 -22,28 -22,74 -2,134 -7,716 -7,926"/>
  <path class="fil0 str2" d="M11935 6541c64,-99 356,-433 424,-440 35,-4 163,19 251,19 0,-77 155,-619 170,-622 91,-17 177,-84 177,-167 0,-237 70,-463 26,-680 -21,-106 34,-306 34,-455 0,-140 -15,-184 14,-186 63,-4 28,9 185,9 110,-117 187,-202 271,-238 5,-2 9,-5 14,-6 101,-21 232,-8 253,47 102,275 247,295 372,373 53,33 2,1598 5,1609 20,77 122,-176 162,-204 31,-21 16,-1012 19,-1099 0,-3 7,-2 10,-2 52,1 133,-2 160,1 2,0 6,0 7,2 11,47 -9,692 84,710 41,293 35,433 35,666 0,6 -5,32 -3,37 56,124 230,401 404,709 4,8 11,17 13,28 14,100 -1,273 0,383"/>
  <path class="fil0 str3" d="M16782 7028c59,-66 204,-289 228,-374l23 -982 177 -14 13 -474 74 -87 167 7 0 277 140 7 4 1089 223 -307 0 -1454c2,-36 90,-119 97,-116l535 -14 87 147 160 150 -3 1524 387 247"/>
  <path class="fil0 str4" d="M23477 11191c-7,364 3,692 171,903 231,290 745,280 988,-269"/>
  <path class="fil0 str4" d="M23477 11191c-204,196 -180,618 -38,839 175,273 526,388 908,277"/>
  <path class="fil0 str4" d="M23477 11191c85,-187 303,-321 535,-337 440,-30 934,307 685,1090"/>
  <path class="fil0 str4" d="M23477 11191c368,-412 1159,-221 1161,321 0,85 -42,192 -136,240"/>
  <path class="fil0 str4" d="M23477 11191c737,-150 1008,275 1025,561"/>
  <path class="fil0 str4" d="M23477 11191c554,-653 1021,-48 786,230"/>
  <path class="fil0 str4" d="M23477 11191c774,-398 863,635 290,643"/>
  <path class="fil0 str4" d="M23477 11191c700,11 923,457 1030,685"/>
  <path class="fil0 str4" d="M23477 11191c417,-215 828,-55 1032,192"/>
  <path class="fil0 str4" d="M23477 11191c277,-287 716,-214 983,34"/>
  <path class="fil0 str4" d="M23477 11191c-443,917 683,1234 825,765"/>
  <path class="fil0 str4" d="M23477 11191c-382,940 817,892 960,852"/>
  <path class="fil0 str4" d="M23477 11191c398,1048 1041,656 1131,580"/>
  <path class="fil0 str4" d="M23477 11191c253,459 837,669 1020,734"/>
  <path class="fil0 str4" d="M23477 11191c-64,691 597,905 780,971"/>
  <path class="fil0 str4" d="M23477 11191c236,220 501,376 684,441"/>
  <path class="fil0 str4" d="M23477 11191c144,31 569,122 783,438"/>
  <path class="fil0 str4" d="M23477 11191c16,528 418,635 643,651 127,10 194,-66 194,-114 0,-59 -90,-92 -119,-7"/>
  <path class="fil0 str4" d="M23806 11565c20,38 24,95 38,128"/>
  <path class="fil0 str4" d="M23730 11980c20,38 46,73 60,105"/>
  <path class="fil0 str4" d="M23714 12279c20,38 41,54 55,87"/>
  <path class="fil0 str4" d="M23989 12170c21,12 31,17 61,34"/>
  <path class="fil0 str4" d="M24059 11882c15,17 40,54 65,77"/>
  <path class="fil0 str4" d="M24208 12345c11,9 31,16 61,34"/>
  <path class="fil0 str4" d="M24408 11458c11,9 90,23 122,35"/>
  <path class="fil0 str4" d="M24459 12102c11,9 80,23 112,35"/>
  <path class="fil0 str4" d="M24549 11984c10,9 58,16 90,28"/>
  <path class="fil0 str4" d="M24612 11352c1,24 -10,50 -20,100"/>
  <path class="fil0 str4" d="M24393 11270c1,24 16,46 18,95"/>
  <path class="fil0 str4" d="M23959 11178c24,23 46,44 80,97"/>
  <path class="fil0 str4" d="M24286 10883c39,-7 74,-42 102,-68"/>
  <path class="fil0 str4" d="M23905 10870c10,-49 19,-61 38,-122"/>
  <path class="fil0 str4" d="M23411 11981c20,37 -5,93 -36,135"/>
  <path class="fil0 str4" d="M24753 11702c22,21 51,55 59,96"/>
  <path class="fil0 str4" d="M24726 11277c29,1 70,-12 110,-8"/>
  <path class="fil0 str5" d="M21490 10757c6,-3 72,20 119,20 134,0 142,-19 250,-82 46,-28 -86,-168 -188,-168 -35,0 -211,78 -211,130 0,54 15,108 30,100z"/>
  <path class="fil0 str5" d="M28542 11717c11,-5 126,35 206,35 235,0 249,-33 437,-144 81,-48 -149,-293 -328,-293 -60,0 -367,136 -367,227 0,94 26,189 52,175z"/>
  <path class="fil0 str5" d="M29476 10859c6,-4 76,21 125,21 142,0 151,-20 265,-87 49,-30 -90,-178 -199,-178 -36,0 -223,82 -223,138 0,57 16,114 32,106z"/>
  <path class="fil0 str5" d="M18701 11603c7,-4 76,21 125,21 142,0 151,-20 265,-87 50,-30 -90,-178 -199,-178 -36,0 -223,82 -223,138 0,57 16,114 32,106z"/>
  <path class="fil0 str5" d="M13622 9961c6,-3 76,21 125,21 142,0 151,-20 265,-87 49,-30 -91,-178 -199,-178 -37,0 -223,82 -223,138 0,57 16,114 32,106z"/>
  <path class="fil0 str5" d="M10769 10451c6,-3 76,21 125,21 142,0 151,-20 265,-87 49,-29 -91,-178 -199,-178 -37,0 -223,82 -223,138 0,57 16,114 32,106z"/>
  <path class="fil0 str5" d="M9568 11731c6,-3 76,21 125,21 142,0 151,-20 265,-87 49,-29 -90,-178 -199,-178 -36,0 -223,82 -223,138 0,57 16,114 32,106z"/>
  <path class="fil0 str5" d="M15719 13187c10,-5 122,35 201,35 228,0 242,-33 425,-141 80,-47 -145,-286 -319,-286 -59,0 -358,132 -358,222 0,91 25,184 51,170z"/>
  <path class="fil0 str6" d="M6718 9530c4532,-235 7340,-1201 12314,156 58,16 115,40 175,46 1896,177 4108,353 6026,332 915,-10 1724,-164 2474,-199 1635,-76 4010,148 5865,181"/>
  <path class="fil0 str6" d="M6655 8154c3092,-94 2154,-166 3048,-308 304,-49 757,25 1045,163 118,57 387,-21 518,-42 973,-152 1900,-223 3099,-335 92,-9 186,11 282,19 2746,224 2961,1136 4385,957 60,-7 115,-1 175,-5 746,-52 1477,34 2200,-56 238,-29 392,-121 675,-133 1051,-42 2275,206 3104,452 107,32 275,74 377,111 982,351 1505,242 2164,211 417,-19 1152,-117 1660,-123 447,-6 606,-255 1079,-232 1058,51 2151,118 3106,135"/>
  <path class="fil0 str6" d="M10363 6800c534,-139 867,-272 1353,-270 270,1 586,79 1009,135 545,74 1268,156 2297,370l1987 -8c414,-30 440,295 1241,-117 1621,-631 2533,-326 4742,593 376,59 539,152 809,378 174,163 882,-174 1324,-111"/>
  <path class="fil0 str6" d="M6655 7136c697,-33 1563,61 2222,-12 189,-21 312,-40 615,-121"/>
  <path class="fil0 str6" d="M33572 8553c-967,-27 -2074,77 -3094,33 -12,-1 -94,-13 -101,-20 -130,-121 -212,-175 -397,-264 -326,-159 -823,-283 -1190,-327"/>
  <path class="fil0 str6" d="M26377 8462c54,39 189,54 249,17 48,-29 -13,-116 232,-260 65,-38 666,-50 743,-45 181,13 263,-173 408,-173"/>
  <path class="fil0 str7" d="M6661 7136c-82,1 -426,68 -613,107 -597,126 -2052,-168 -2652,-294 -364,-76 -2042,-35 -2322,152 -11,7 -879,10 -1066,58"/>
  <path class="fil0 str7" d="M6676 8153c-273,8 -1591,160 -2174,282 -1051,221 -2152,-25 -3199,-47 -95,-2 -1159,251 -1295,298"/>
  <path class="fil0 str7" d="M8 10288c265,0 1114,-287 1629,-344 1134,-126 2168,-238 3306,-290 757,-34 905,-138 1783,-125 13,1 -35,1 -17,1"/>
  <path class="fil0 str7" d="M33550 8552c144,12 1603,-164 2023,-164 918,0 1293,150 2022,-397 49,-37 396,-127 485,-155"/>
  <path class="fil0 str7" d="M33547 8968c55,-8 2164,-70 2526,-65 984,13 981,130 2351,-44 151,-20 1571,-49 1590,-128"/>
  <path class="fil0 str7" d="M38080 7836c60,15 1611,-121 1929,-121"/>
  <path class="fil0 str7" d="M33466 10044c106,2 1377,102 1803,54 1244,-140 2549,-129 3787,-70 212,11 783,94 966,30"/>
 </g>
</svg>
