<?xml version="1.0" encoding="UTF-8"?>
<!DOCTYPE svg PUBLIC "-//W3C//DTD SVG 1.1//EN" "http://www.w3.org/Graphics/SVG/1.1/DTD/svg11.dtd">
<!-- Creator: CorelDRAW X8 -->
<svg xmlns="http://www.w3.org/2000/svg" xml:space="preserve" width="33.9411mm" height="31.0168mm" version="1.1" style="shape-rendering:geometricPrecision; text-rendering:geometricPrecision; image-rendering:optimizeQuality; fill-rule:evenodd; clip-rule:evenodd"
viewBox="0 0 428 391"
 xmlns:xlink="http://www.w3.org/1999/xlink">
 <defs>
  <style type="text/css">
   <![CDATA[
    .str0 {stroke:#D2AE6D;stroke-width:6.3092;stroke-linecap:round;stroke-linejoin:round}
    .fil0 {fill:none}
   ]]>
  </style>
 </defs>
 <g id="Capa_x0020_1">
  <metadata id="CorelCorpID_0Corel-Layer"/>
  <g id="_2819308329216">
   <path class="fil0 str0" d="M128 359c94,-7 179,-17 229,-64 70,-66 56,-198 -91,-247"/>
   <path class="fil0 str0" d="M128 359c55,48 164,32 218,-9 66,-52 88,-144 51,-239"/>
   <path class="fil0 str0" d="M128 359c-50,-18 -90,-71 -99,-130 -18,-112 58,-246 266,-200"/>
   <path class="fil0 str0" d="M128 359c-115,-85 -83,-292 57,-305 22,-2 51,7 65,30"/>
   <path class="fil0 str0" d="M128 359c-55,-186 48,-265 122,-275"/>
   <path class="fil0 str0" d="M128 359c-181,-127 -35,-261 42,-207"/>
   <path class="fil0 str0" d="M128 359c-120,-189 145,-236 160,-89"/>
   <path class="fil0 str0" d="M128 359c-13,-180 97,-247 154,-280"/>
   <path class="fil0 str0" d="M128 359c-65,-102 -33,-211 26,-269"/>
   <path class="fil0 str0" d="M128 359c-80,-65 -71,-179 -13,-253"/>
   <path class="fil0 str0" d="M128 359c247,93 304,-203 179,-229"/>
   <path class="fil0 str0" d="M128 359c251,76 212,-229 199,-265"/>
   <path class="fil0 str0" d="M128 359c262,-126 146,-282 124,-303"/>
   <path class="fil0 str0" d="M128 359c113,-75 154,-230 167,-278"/>
   <path class="fil0 str0" d="M128 359c180,1 221,-174 233,-222"/>
   <path class="fil0 str0" d="M128 359c52,-66 86,-137 99,-185"/>
   <path class="fil0 str0" d="M128 359c5,-38 19,-149 96,-211"/>
   <path class="fil0 str0" d="M128 359c136,-16 155,-122 154,-180 0,-32 -21,-48 -34,-47 -15,2 -22,25 1,31"/>
   <path class="fil0 str0" d="M217 266c10,-6 24,-8 32,-13"/>
   <path class="fil0 str0" d="M326 276c10,-6 18,-13 26,-18"/>
   <path class="fil0 str0" d="M404 273c9,-5 13,-11 21,-16"/>
   <path class="fil0 str0" d="M370 206c2,-6 3,-9 7,-17"/>
   <path class="fil0 str0" d="M294 194c4,-4 13,-11 18,-18"/>
   <path class="fil0 str0" d="M410 145c2,-2 3,-8 7,-16"/>
   <path class="fil0 str0" d="M176 114c2,-3 4,-23 6,-32"/>
   <path class="fil0 str0" d="M341 87c3,-3 5,-21 7,-30"/>
   <path class="fil0 str0" d="M309 66c2,-3 3,-15 5,-23"/>
   <path class="fil0 str0" d="M144 64c6,0 13,2 27,3"/>
   <path class="fil0 str0" d="M128 122c6,0 11,-5 24,-6"/>
   <path class="fil0 str0" d="M114 236c5,-7 10,-13 23,-23"/>
   <path class="fil0 str0" d="M30 159c-2,-10 -12,-18 -20,-25"/>
   <path class="fil0 str0" d="M35 257c-12,-2 -16,-4 -32,-8"/>
   <path class="fil0 str0" d="M334 358c9,-6 24,-1 35,6"/>
   <path class="fil0 str0" d="M231 20c5,-6 14,-14 24,-17"/>
   <path class="fil0 str0" d="M122 37c0,-7 -4,-18 -4,-28"/>
  </g>
 </g>
</svg>
